<?xml version="1.0" encoding="UTF-8"?>
<svg id="Layer_1" xmlns="http://www.w3.org/2000/svg" viewBox="0 0 1080 1080">
  <defs>
    <style>
      .cls-1 {
        fill: #ffbb12;
      }
    </style>
  </defs>
  <rect x="0" y="0" width="1080" height="1080"/>
  <g>
    <g>
      <path class="cls-1" d="M628.09,409.92l-55.48,55.48c-3.24,3.24-7.99,4.44-12.37,3.09-6.54-2.03-13.49-3.13-20.71-3.13s-13.84,1.04-20.24,2.98c-4.29,1.3-8.94,0-12.11-3.17l-55.25-55.25c-5.76-5.76-4.44-15.34,2.57-19.51,25.03-14.87,54.26-23.4,85.51-23.4s60.47,8.53,85.51,23.4c7.01,4.16,8.33,13.74,2.57,19.51Z"/>
      <path class="cls-1" d="M479.95,498.91c-4.65,7.67-7.87,16.3-9.27,25.53-.92,6.05-6.3,10.41-12.42,10.41h-73.54c-7.18,0-12.59-5.86-12.04-13.02,2.58-33.6,15.05-64.42,34.51-89.57,4.43-5.73,12.93-6.21,18.05-1.08l53.08,53.08c3.9,3.9,4.5,9.94,1.64,14.66Z"/>
      <path class="cls-1" d="M694.96,534.85h-74.23c-6.09,0-11.43-4.36-12.34-10.38-1.36-8.97-4.43-17.37-8.86-24.88-2.85-4.82-2.23-10.93,1.73-14.9l53.28-53.28c5.26-5.26,14-4.78,18.54,1.12,19.26,25.01,31.63,55.61,34.26,88.94.58,7.35-4.99,13.37-12.37,13.37Z"/>
    </g>
    <path class="cls-1" d="M526.75,632.76v74.86c0,2.96-2.4,5.37-5.37,5.37h-13.89c-2.96,0-5.37-2.4-5.37-5.37v-99.83c0-7.87-9.51-11.81-15.08-6.25l-66.23,66.23c-5.88,5.88-14.42,5-19.1-1.86-15.89-23.32-26.01-50.88-28.36-80.6-.58-7.32,5.05-13.33,12.39-13.33h80.21c33.57,0,60.78,27.21,60.78,60.78Z"/>
    <path class="cls-1" d="M553.94,632.76v74.86c0,2.96,2.4,5.37,5.37,5.37h13.89c2.96,0,5.37-2.4,5.37-5.37v-99.83c0-7.87,9.51-11.81,15.08-6.25l66.23,66.23c5.88,5.88,14.42,5,19.1-1.86,15.89-23.32,26.01-50.88,28.36-80.6.58-7.32-5.05-13.33-12.39-13.33h-80.21c-33.57,0-60.78,27.21-60.78,60.78Z"/>
  </g>
</svg>